<?xml version="1.0" encoding="iso-8859-1"?>
<!-- Generator: Adobe Illustrator 21.1.0, SVG Export Plug-In . SVG Version: 6.00 Build 0)  -->
<svg version="1.1" xmlns="http://www.w3.org/2000/svg" xmlns:xlink="http://www.w3.org/1999/xlink" x="0px" y="0px"
	 viewBox="0 0 3000 3000" style="enable-background:new 0 0 3000 3000;" xml:space="preserve">
<g id="feathers6">
	<g>
		<g>
			
				<ellipse transform="matrix(0.9941 -0.1081 0.1081 0.9941 -142.848 290.9541)" style="fill:#091D2F;" cx="2613.276" cy="1463.568" rx="316.558" ry="204.605"/>
			
				<ellipse transform="matrix(0.9941 -0.1081 0.1081 0.9941 -143.3546 287.8621)" style="fill:#6CC29D;" cx="2584.492" cy="1466.697" rx="287.605" ry="185.891"/>
			
				<ellipse transform="matrix(0.9941 -0.1081 0.1081 0.9941 -144.3634 281.7053)" style="fill:#FFFFFF;" cx="2527.178" cy="1472.927" rx="229.953" ry="148.628"/>
			
				<ellipse transform="matrix(0.9941 -0.1081 0.1081 0.9941 -144.7314 279.4592)" style="fill:#7F569C;" cx="2506.269" cy="1475.199" rx="208.921" ry="135.034"/>
			
				<ellipse transform="matrix(0.9941 -0.1081 0.1081 0.9941 -145.8708 272.5051)" style="fill:#091D2F;" cx="2441.532" cy="1482.236" rx="143.802" ry="92.945"/>
			
				<ellipse transform="matrix(0.9941 -0.1081 0.1081 0.9941 -146.1009 271.1005)" style="fill:#6CC29D;" cx="2428.456" cy="1483.657" rx="130.65" ry="84.444"/>
			
				<ellipse transform="matrix(0.9941 -0.1081 0.1081 0.9941 -146.5592 268.3037)" style="fill:#FFFFFF;" cx="2402.42" cy="1486.487" rx="104.46" ry="67.517"/>
			
				<ellipse transform="matrix(0.9941 -0.1081 0.1081 0.9941 -146.7263 267.2834)" style="fill:#375DA9;" cx="2392.922" cy="1487.519" rx="94.906" ry="61.342"/>
		</g>
		<g>
			
				<ellipse transform="matrix(0.4969 -0.8678 0.8678 0.4969 -629.227 980.4916)" style="fill:#091D2F;" cx="531.048" cy="1032.946" rx="204.605" ry="316.558"/>
			
				<ellipse transform="matrix(0.4969 -0.8678 0.8678 0.4969 -629.0724 1009.5336)" style="fill:#6CC29D;" cx="556.173" cy="1047.334" rx="185.891" ry="287.605"/>
			
				<ellipse transform="matrix(0.4969 -0.8678 0.8678 0.4969 -628.7645 1067.3621)" style="fill:#FFFFFF;" cx="606.204" cy="1075.982" rx="148.628" ry="229.953"/>
			
				<ellipse transform="matrix(0.4969 -0.8678 0.8678 0.4969 -628.6522 1088.4586)" style="fill:#7F569C;" cx="624.455" cy="1086.434" rx="135.034" ry="208.921"/>
			
				<ellipse transform="matrix(0.4969 -0.8678 0.8678 0.4969 -628.3044 1153.7759)" style="fill:#091D2F;" cx="680.964" cy="1118.792" rx="92.945" ry="143.802"/>
			
				<ellipse transform="matrix(0.4969 -0.8678 0.8678 0.4969 -628.2342 1166.9688)" style="fill:#6CC29D;" cx="692.378" cy="1125.328" rx="84.444" ry="130.65"/>
			
				<ellipse transform="matrix(0.4969 -0.8678 0.8678 0.4969 -628.0944 1193.2383)" style="fill:#FFFFFF;" cx="715.105" cy="1138.342" rx="67.517" ry="104.46"/>
			
				<ellipse transform="matrix(0.4969 -0.8678 0.8678 0.4969 -628.0433 1202.8218)" style="fill:#375DA9;" cx="723.397" cy="1143.09" rx="61.342" ry="94.906"/>
		</g>
		<g>
			
				<ellipse transform="matrix(0.101 -0.9949 0.9949 0.101 -1120.4812 1711.3368)" style="fill:#091D2F;" cx="386.691" cy="1475.662" rx="204.605" ry="316.558"/>
			
				<ellipse transform="matrix(0.101 -0.9949 0.9949 0.101 -1097.4943 1742.6239)" style="fill:#6CC29D;" cx="415.496" cy="1478.587" rx="185.891" ry="287.605"/>
			
				<ellipse transform="matrix(0.101 -0.9949 0.9949 0.101 -1051.7229 1804.9225)" style="fill:#FFFFFF;" cx="472.853" cy="1484.409" rx="148.628" ry="229.953"/>
			
				<ellipse transform="matrix(0.101 -0.9949 0.9949 0.101 -1035.0249 1827.6499)" style="fill:#7F569C;" cx="493.778" cy="1486.534" rx="135.034" ry="208.921"/>
			
				<ellipse transform="matrix(0.101 -0.9949 0.9949 0.101 -983.3261 1898.0164)" style="fill:#091D2F;" cx="558.563" cy="1493.11" rx="92.945" ry="143.802"/>
			
				<ellipse transform="matrix(0.101 -0.9949 0.9949 0.101 -972.8839 1912.229)" style="fill:#6CC29D;" cx="571.649" cy="1494.439" rx="84.444" ry="130.65"/>
			
				<ellipse transform="matrix(0.101 -0.9949 0.9949 0.101 -952.0914 1940.5293)" style="fill:#FFFFFF;" cx="597.704" cy="1497.084" rx="67.517" ry="104.46"/>
			
				<ellipse transform="matrix(0.101 -0.9949 0.9949 0.101 -944.506 1950.8536)" style="fill:#375DA9;" cx="607.21" cy="1498.049" rx="61.342" ry="94.906"/>
		</g>
		<g>
			
				<ellipse transform="matrix(0.8642 -0.5031 0.5031 0.8642 -181.171 1382.4526)" style="fill:#091D2F;" cx="2470.915" cy="1026.912" rx="316.558" ry="204.605"/>
			
				<ellipse transform="matrix(0.8642 -0.5031 0.5031 0.8642 -191.8955 1371.8417)" style="fill:#6CC29D;" cx="2445.892" cy="1041.478" rx="287.605" ry="185.891"/>
			
				<ellipse transform="matrix(0.8642 -0.5031 0.5031 0.8642 -213.2502 1350.7133)" style="fill:#FFFFFF;" cx="2396.066" cy="1070.481" rx="229.953" ry="148.628"/>
			
				<ellipse transform="matrix(0.8642 -0.5031 0.5031 0.8642 -221.0406 1343.0052)" style="fill:#7F569C;" cx="2377.889" cy="1081.061" rx="208.921" ry="135.034"/>
			
				<ellipse transform="matrix(0.8642 -0.5031 0.5031 0.8642 -245.1607 1319.1406)" style="fill:#091D2F;" cx="2321.611" cy="1113.82" rx="143.802" ry="92.945"/>
			
				<ellipse transform="matrix(0.8642 -0.5031 0.5031 0.8642 -250.0325 1314.3204)" style="fill:#6CC29D;" cx="2310.244" cy="1120.437" rx="130.65" ry="84.444"/>
			
				<ellipse transform="matrix(0.8642 -0.5031 0.5031 0.8642 -259.7333 1304.7224)" style="fill:#FFFFFF;" cx="2287.61" cy="1133.612" rx="104.46" ry="67.517"/>
			
				<ellipse transform="matrix(0.8642 -0.5031 0.5031 0.8642 -263.2722 1301.2209)" style="fill:#375DA9;" cx="2279.353" cy="1138.419" rx="94.906" ry="61.342"/>
		</g>
		<g>
			
				<ellipse transform="matrix(0.5849 -0.8111 0.8111 0.5849 342.3807 2034.2581)" style="fill:#091D2F;" cx="2158.691" cy="682.618" rx="316.558" ry="204.605"/>
			
				<ellipse transform="matrix(0.5849 -0.8111 0.8111 0.5849 316.3032 2030.27)" style="fill:#6CC29D;" cx="2141.756" cy="706.102" rx="287.605" ry="185.891"/>
			
				<ellipse transform="matrix(0.5849 -0.8111 0.8111 0.5849 264.3776 2022.329)" style="fill:#FFFFFF;" cx="2108.035" cy="752.864" rx="229.953" ry="148.628"/>
			
				<ellipse transform="matrix(0.5849 -0.8111 0.8111 0.5849 245.4345 2019.4319)" style="fill:#7F569C;" cx="2095.733" cy="769.923" rx="208.921" ry="135.034"/>
			
				<ellipse transform="matrix(0.5849 -0.8111 0.8111 0.5849 186.7845 2010.4625)" style="fill:#091D2F;" cx="2057.645" cy="822.74" rx="143.802" ry="92.945"/>
			
				<ellipse transform="matrix(0.5849 -0.8111 0.8111 0.5849 174.9383 2008.6509)" style="fill:#6CC29D;" cx="2049.951" cy="833.408" rx="130.65" ry="84.444"/>
			
				<ellipse transform="matrix(0.5849 -0.8111 0.8111 0.5849 151.3502 2005.0435)" style="fill:#FFFFFF;" cx="2034.633" cy="854.65" rx="104.46" ry="67.517"/>
			
				<ellipse transform="matrix(0.5849 -0.8111 0.8111 0.5849 142.7449 2003.7274)" style="fill:#375DA9;" cx="2029.044" cy="862.4" rx="94.906" ry="61.342"/>
		</g>
		<g>
			
				<ellipse transform="matrix(0.2044 -0.9789 0.9789 0.2044 894.4189 2090.6812)" style="fill:#091D2F;" cx="1733.424" cy="495.082" rx="316.558" ry="204.605"/>
			
				<ellipse transform="matrix(0.2044 -0.9789 0.9789 0.2044 861.9664 2107.4348)" style="fill:#6CC29D;" cx="1727.505" cy="523.424" rx="287.605" ry="185.891"/>
			
				<ellipse transform="matrix(0.2044 -0.9789 0.9789 0.2044 797.3472 2140.7944)" style="fill:#FFFFFF;" cx="1715.718" cy="579.859" rx="229.953" ry="148.628"/>
			
				<ellipse transform="matrix(0.2044 -0.9789 0.9789 0.2044 773.7732 2152.9646)" style="fill:#7F569C;" cx="1711.418" cy="600.447" rx="208.921" ry="135.034"/>
			
				<ellipse transform="matrix(0.2044 -0.9789 0.9789 0.2044 700.7857 2190.6443)" style="fill:#091D2F;" cx="1698.106" cy="664.19" rx="143.802" ry="92.945"/>
			
				<ellipse transform="matrix(0.2044 -0.9789 0.9789 0.2044 686.0436 2198.2549)" style="fill:#6CC29D;" cx="1695.417" cy="677.065" rx="130.65" ry="84.444"/>
			
				<ellipse transform="matrix(0.2044 -0.9789 0.9789 0.2044 656.6891 2213.4092)" style="fill:#FFFFFF;" cx="1690.063" cy="702.701" rx="104.46" ry="67.517"/>
			
				<ellipse transform="matrix(0.2044 -0.9789 0.9789 0.2044 645.9802 2218.9375)" style="fill:#375DA9;" cx="1688.109" cy="712.053" rx="94.906" ry="61.342"/>
		</g>
		<g>
			
				<ellipse transform="matrix(0.9774 -0.2114 0.2114 0.9774 -75.9033 278.9105)" style="fill:#091D2F;" cx="1266.602" cy="494.479" rx="204.605" ry="316.558"/>
			
				<ellipse transform="matrix(0.9774 -0.2114 0.2114 0.9774 -81.747 280.8437)" style="fill:#6CC29D;" cx="1272.722" cy="522.779" rx="185.891" ry="287.605"/>
			
				<ellipse transform="matrix(0.9774 -0.2114 0.2114 0.9774 -93.3828 284.693)" style="fill:#FFFFFF;" cx="1284.909" cy="579.128" rx="148.628" ry="229.953"/>
			
				<ellipse transform="matrix(0.9774 -0.2114 0.2114 0.9774 -97.6277 286.0973)" style="fill:#7F569C;" cx="1289.355" cy="599.685" rx="135.034" ry="208.921"/>
			
				<ellipse transform="matrix(0.9774 -0.2114 0.2114 0.9774 -110.7705 290.4451)" style="fill:#091D2F;" cx="1303.12" cy="663.332" rx="92.945" ry="143.802"/>
			
				<ellipse transform="matrix(0.9774 -0.2114 0.2114 0.9774 -113.4251 291.3233)" style="fill:#6CC29D;" cx="1305.9" cy="676.187" rx="84.444" ry="130.65"/>
			
				<ellipse transform="matrix(0.9774 -0.2114 0.2114 0.9774 -118.7109 293.0719)" style="fill:#FFFFFF;" cx="1311.436" cy="701.785" rx="67.517" ry="104.46"/>
			
				<ellipse transform="matrix(0.9774 -0.2114 0.2114 0.9774 -120.6392 293.7098)" style="fill:#375DA9;" cx="1313.456" cy="711.123" rx="61.342" ry="94.906"/>
		</g>
		<g>
			
				<ellipse transform="matrix(0.8069 -0.5907 0.5907 0.8069 -241.7276 628.1105)" style="fill:#091D2F;" cx="839.894" cy="683.802" rx="204.605" ry="316.558"/>
			
				<ellipse transform="matrix(0.8069 -0.5907 0.5907 0.8069 -252.2253 642.7224)" style="fill:#6CC29D;" cx="856.996" cy="707.165" rx="185.891" ry="287.605"/>
			
				<ellipse transform="matrix(0.8069 -0.5907 0.5907 0.8069 -273.1284 671.8176)" style="fill:#FFFFFF;" cx="891.048" cy="753.686" rx="148.628" ry="229.953"/>
			
				<ellipse transform="matrix(0.8069 -0.5907 0.5907 0.8069 -280.7542 682.4318)" style="fill:#7F569C;" cx="903.471" cy="770.658" rx="135.034" ry="208.921"/>
			
				<ellipse transform="matrix(0.8069 -0.5907 0.5907 0.8069 -304.3643 715.2949)" style="fill:#091D2F;" cx="941.933" cy="823.203" rx="92.945" ry="143.802"/>
			
				<ellipse transform="matrix(0.8069 -0.5907 0.5907 0.8069 -309.1331 721.9326)" style="fill:#6CC29D;" cx="949.702" cy="833.816" rx="84.444" ry="130.65"/>
			
				<ellipse transform="matrix(0.8069 -0.5907 0.5907 0.8069 -318.6287 735.1495)" style="fill:#FFFFFF;" cx="965.171" cy="854.949" rx="67.517" ry="104.46"/>
			
				<ellipse transform="matrix(0.8069 -0.5907 0.5907 0.8069 -322.0928 739.9713)" style="fill:#375DA9;" cx="970.814" cy="862.659" rx="61.342" ry="94.906"/>
		</g>
		<g>
			
				<ellipse transform="matrix(0.95 -0.3124 0.3124 0.95 -583.0734 233.3881)" style="fill:#091D2F;" cx="436.872" cy="1936.477" rx="316.558" ry="204.605"/>
			
				<ellipse transform="matrix(0.95 -0.3124 0.3124 0.95 -578.8714 241.5276)" style="fill:#6CC29D;" cx="464.376" cy="1927.432" rx="287.605" ry="185.891"/>
			
				<ellipse transform="matrix(0.95 -0.3124 0.3124 0.95 -570.5043 257.7349)" style="fill:#FFFFFF;" cx="519.143" cy="1909.422" rx="229.953" ry="148.628"/>
			
				<ellipse transform="matrix(0.95 -0.3124 0.3124 0.95 -567.452 263.6476)" style="fill:#7F569C;" cx="539.123" cy="1902.852" rx="208.921" ry="135.034"/>
			
				<ellipse transform="matrix(0.95 -0.3124 0.3124 0.95 -558.0014 281.9537)" style="fill:#091D2F;" cx="600.982" cy="1882.51" rx="143.802" ry="92.945"/>
			
				<ellipse transform="matrix(0.95 -0.3124 0.3124 0.95 -556.0926 285.6512)" style="fill:#6CC29D;" cx="613.477" cy="1878.401" rx="130.65" ry="84.444"/>
			
				<ellipse transform="matrix(0.95 -0.3124 0.3124 0.95 -552.2917 293.0137)" style="fill:#FFFFFF;" cx="638.355" cy="1870.22" rx="104.46" ry="67.517"/>
			
				<ellipse transform="matrix(0.95 -0.3124 0.3124 0.95 -550.9051 295.6996)" style="fill:#375DA9;" cx="647.432" cy="1867.235" rx="94.906" ry="61.342"/>
		</g>
		<g>
			
				<ellipse transform="matrix(0.7408 -0.6718 0.6718 0.7408 -1396.2155 1056.0217)" style="fill:#091D2F;" cx="670.145" cy="2337.042" rx="316.558" ry="204.605"/>
			
				<ellipse transform="matrix(0.7408 -0.6718 0.6718 0.7408 -1377.5897 1065.3875)" style="fill:#6CC29D;" cx="691.593" cy="2317.592" rx="287.605" ry="185.891"/>
			
				<ellipse transform="matrix(0.7408 -0.6718 0.6718 0.7408 -1340.5022 1084.0365)" style="fill:#FFFFFF;" cx="734.299" cy="2278.863" rx="229.953" ry="148.628"/>
			
				<ellipse transform="matrix(0.7408 -0.6718 0.6718 0.7408 -1326.9722 1090.84)" style="fill:#7F569C;" cx="749.88" cy="2264.734" rx="208.921" ry="135.034"/>
			
				<ellipse transform="matrix(0.7408 -0.6718 0.6718 0.7408 -1285.0818 1111.9039)" style="fill:#091D2F;" cx="798.117" cy="2220.99" rx="143.802" ry="92.945"/>
			
				<ellipse transform="matrix(0.7408 -0.6718 0.6718 0.7408 -1276.6206 1116.1586)" style="fill:#6CC29D;" cx="807.86" cy="2212.155" rx="130.65" ry="84.444"/>
			
				<ellipse transform="matrix(0.7408 -0.6718 0.6718 0.7408 -1259.7729 1124.6301)" style="fill:#FFFFFF;" cx="827.26" cy="2194.562" rx="104.46" ry="67.517"/>
			
				<ellipse transform="matrix(0.7408 -0.6718 0.6718 0.7408 -1253.6267 1127.7207)" style="fill:#375DA9;" cx="834.338" cy="2188.144" rx="94.906" ry="61.342"/>
		</g>
		<g>
			
				<ellipse transform="matrix(0.3056 -0.9521 0.9521 0.3056 -52.5356 3783.1243)" style="fill:#091D2F;" cx="2567.552" cy="1927.582" rx="204.605" ry="316.558"/>
			
				<ellipse transform="matrix(0.3056 -0.9521 0.9521 0.3056 -63.2519 3750.7307)" style="fill:#6CC29D;" cx="2539.984" cy="1918.733" rx="185.891" ry="287.605"/>
			
				<ellipse transform="matrix(0.3056 -0.9521 0.9521 0.3056 -84.59 3686.229)" style="fill:#FFFFFF;" cx="2485.09" cy="1901.112" rx="148.628" ry="229.953"/>
			
				<ellipse transform="matrix(0.3056 -0.9521 0.9521 0.3056 -92.3745 3662.698)" style="fill:#7F569C;" cx="2465.064" cy="1894.684" rx="135.034" ry="208.921"/>
			
				<ellipse transform="matrix(0.3056 -0.9521 0.9521 0.3056 -116.476 3589.8433)" style="fill:#091D2F;" cx="2403.062" cy="1874.781" rx="92.945" ry="143.802"/>
			
				<ellipse transform="matrix(0.3056 -0.9521 0.9521 0.3056 -121.344 3575.1279)" style="fill:#6CC29D;" cx="2390.539" cy="1870.761" rx="84.444" ry="130.65"/>
			
				<ellipse transform="matrix(0.3056 -0.9521 0.9521 0.3056 -131.0373 3545.8269)" style="fill:#FFFFFF;" cx="2365.603" cy="1862.756" rx="67.517" ry="104.46"/>
			
				<ellipse transform="matrix(0.3056 -0.9521 0.9521 0.3056 -134.5735 3535.1375)" style="fill:#375DA9;" cx="2356.506" cy="1859.836" rx="61.342" ry="94.906"/>
		</g>
		<g>
			
				<ellipse transform="matrix(0.6665 -0.7455 0.7455 0.6665 -960.8101 2520.5747)" style="fill:#091D2F;" cx="2336.781" cy="2334.162" rx="204.605" ry="316.558"/>
			
				<ellipse transform="matrix(0.6665 -0.7455 0.7455 0.6665 -953.6227 2498.0469)" style="fill:#6CC29D;" cx="2315.196" cy="2314.865" rx="185.891" ry="287.605"/>
			
				<ellipse transform="matrix(0.6665 -0.7455 0.7455 0.6665 -939.3111 2453.1892)" style="fill:#FFFFFF;" cx="2272.216" cy="2276.44" rx="148.628" ry="229.953"/>
			
				<ellipse transform="matrix(0.6665 -0.7455 0.7455 0.6665 -934.0901 2436.8245)" style="fill:#7F569C;" cx="2256.536" cy="2262.422" rx="135.034" ry="208.921"/>
			
				<ellipse transform="matrix(0.6665 -0.7455 0.7455 0.6665 -917.9252 2386.158)" style="fill:#091D2F;" cx="2207.989" cy="2219.022" rx="92.945" ry="143.802"/>
			
				<ellipse transform="matrix(0.6665 -0.7455 0.7455 0.6665 -914.6602 2375.9241)" style="fill:#6CC29D;" cx="2198.184" cy="2210.256" rx="84.444" ry="130.65"/>
			
				<ellipse transform="matrix(0.6665 -0.7455 0.7455 0.6665 -908.1589 2355.5466)" style="fill:#FFFFFF;" cx="2178.659" cy="2192.801" rx="67.517" ry="104.46"/>
			
				<ellipse transform="matrix(0.6665 -0.7455 0.7455 0.6665 -905.7871 2348.1128)" style="fill:#375DA9;" cx="2171.536" cy="2186.433" rx="61.342" ry="94.906"/>
		</g>
	</g>
</g>
<g id="Layer_1">
</g>
</svg>
