<?xml version="1.0" encoding="iso-8859-1"?>
<!-- Generator: Adobe Illustrator 21.1.0, SVG Export Plug-In . SVG Version: 6.00 Build 0)  -->
<svg version="1.1" xmlns="http://www.w3.org/2000/svg" xmlns:xlink="http://www.w3.org/1999/xlink" x="0px" y="0px"
	 viewBox="0 0 3000 3000" style="enable-background:new 0 0 3000 3000;" xml:space="preserve">
<g id="feathers5">
	<g>
		<g>
			
				<ellipse transform="matrix(0.9511 -0.309 0.309 0.9511 -324.1044 726.4921)" style="fill:#091D2F;" cx="2131.393" cy="1386.403" rx="188.715" ry="121.974"/>
			
				<ellipse transform="matrix(0.9511 -0.309 0.309 0.9511 -326.5561 721.6805)" style="fill:#6CC29D;" cx="2114.978" cy="1391.737" rx="171.455" ry="110.818"/>
			
				<ellipse transform="matrix(0.9511 -0.309 0.309 0.9511 -331.4378 712.0994)" style="fill:#FFFFFF;" cx="2082.291" cy="1402.358" rx="137.086" ry="88.604"/>
			
				<ellipse transform="matrix(0.9511 -0.309 0.309 0.9511 -333.2188 708.6042)" style="fill:#7F569C;" cx="2070.366" cy="1406.232" rx="124.547" ry="80.5"/>
			
				<ellipse transform="matrix(0.9511 -0.309 0.309 0.9511 -338.7327 697.7824)" style="fill:#091D2F;" cx="2033.446" cy="1418.228" rx="85.727" ry="55.409"/>
			
				<ellipse transform="matrix(0.9511 -0.309 0.309 0.9511 -339.8464 695.5966)" style="fill:#6CC29D;" cx="2025.989" cy="1420.651" rx="77.886" ry="50.341"/>
			
				<ellipse transform="matrix(0.9511 -0.309 0.309 0.9511 -342.0641 691.2443)" style="fill:#FFFFFF;" cx="2011.14" cy="1425.476" rx="62.274" ry="40.25"/>
			
				<ellipse transform="matrix(0.9511 -0.309 0.309 0.9511 -342.8731 689.6564)" style="fill:#375DA9;" cx="2005.723" cy="1427.236" rx="56.578" ry="36.569"/>
		</g>
		<g>
			
				<ellipse transform="matrix(0.309 -0.9511 0.9511 0.309 -724.0253 1781.2323)" style="fill:#091D2F;" cx="863.815" cy="1388.884" rx="121.974" ry="188.715"/>
			
				<ellipse transform="matrix(0.309 -0.9511 0.9511 0.309 -717.755 1800.5302)" style="fill:#6CC29D;" cx="880.231" cy="1394.218" rx="110.818" ry="171.455"/>
			
				<ellipse transform="matrix(0.309 -0.9511 0.9511 0.309 -705.2697 1838.9559)" style="fill:#FFFFFF;" cx="912.918" cy="1404.838" rx="88.604" ry="137.086"/>
			
				<ellipse transform="matrix(0.309 -0.9511 0.9511 0.309 -700.7149 1852.9742)" style="fill:#7F569C;" cx="924.843" cy="1408.713" rx="80.5" ry="124.547"/>
			
				<ellipse transform="matrix(0.309 -0.9511 0.9511 0.309 -686.6127 1896.3762)" style="fill:#091D2F;" cx="961.763" cy="1420.709" rx="55.409" ry="85.727"/>
			
				<ellipse transform="matrix(0.309 -0.9511 0.9511 0.309 -683.7644 1905.1426)" style="fill:#6CC29D;" cx="969.22" cy="1423.132" rx="50.341" ry="77.886"/>
			
				<ellipse transform="matrix(0.309 -0.9511 0.9511 0.309 -678.0927 1922.5983)" style="fill:#FFFFFF;" cx="984.068" cy="1427.956" rx="40.25" ry="62.274"/>
			
				<ellipse transform="matrix(0.309 -0.9511 0.9511 0.309 -676.0236 1928.9663)" style="fill:#375DA9;" cx="989.485" cy="1429.716" rx="36.569" ry="56.578"/>
		</g>
		<g>
			
				<ellipse transform="matrix(0.9945 -0.1045 0.1045 0.9945 -169.4556 96.2478)" style="fill:#091D2F;" cx="833.531" cy="1664.827" rx="188.715" ry="121.974"/>
			
				<ellipse transform="matrix(0.9945 -0.1045 0.1045 0.9945 -169.173 98.0323)" style="fill:#6CC29D;" cx="850.697" cy="1663.023" rx="171.455" ry="110.818"/>
			
				<ellipse transform="matrix(0.9945 -0.1045 0.1045 0.9945 -168.6102 101.5855)" style="fill:#FFFFFF;" cx="884.878" cy="1659.43" rx="137.086" ry="88.604"/>
			
				<ellipse transform="matrix(0.9945 -0.1045 0.1045 0.9945 -168.4049 102.8817)" style="fill:#7F569C;" cx="897.348" cy="1658.12" rx="124.547" ry="80.5"/>
			
				<ellipse transform="matrix(0.9945 -0.1045 0.1045 0.9945 -167.7693 106.895)" style="fill:#091D2F;" cx="935.955" cy="1654.062" rx="85.727" ry="55.409"/>
			
				<ellipse transform="matrix(0.9945 -0.1045 0.1045 0.9945 -167.6409 107.7057)" style="fill:#6CC29D;" cx="943.753" cy="1653.242" rx="77.886" ry="50.341"/>
			
				<ellipse transform="matrix(0.9945 -0.1045 0.1045 0.9945 -167.3852 109.3198)" style="fill:#FFFFFF;" cx="959.28" cy="1651.61" rx="62.274" ry="40.25"/>
			
				<ellipse transform="matrix(0.9945 -0.1045 0.1045 0.9945 -167.292 109.9086)" style="fill:#375DA9;" cx="964.945" cy="1651.015" rx="56.578" ry="36.569"/>
		</g>
		<g>
			
				<ellipse transform="matrix(0.7431 -0.6691 0.6691 0.7431 -256.3397 1630.0936)" style="fill:#091D2F;" cx="1995.1" cy="1148.941" rx="188.715" ry="121.974"/>
			
				<ellipse transform="matrix(0.7431 -0.6691 0.6691 0.7431 -267.3625 1624.4772)" style="fill:#6CC29D;" cx="1982.273" cy="1160.49" rx="171.455" ry="110.818"/>
			
				<ellipse transform="matrix(0.7431 -0.6691 0.6691 0.7431 -289.3112 1613.2938)" style="fill:#FFFFFF;" cx="1956.731" cy="1183.488" rx="137.086" ry="88.604"/>
			
				<ellipse transform="matrix(0.7431 -0.6691 0.6691 0.7431 -297.3184 1609.214)" style="fill:#7F569C;" cx="1947.414" cy="1191.877" rx="124.547" ry="80.5"/>
			
				<ellipse transform="matrix(0.7431 -0.6691 0.6691 0.7431 -322.1094 1596.5823)" style="fill:#091D2F;" cx="1918.565" cy="1217.853" rx="85.727" ry="55.409"/>
			
				<ellipse transform="matrix(0.7431 -0.6691 0.6691 0.7431 -327.1167 1594.0309)" style="fill:#6CC29D;" cx="1912.738" cy="1223.1" rx="77.886" ry="50.341"/>
			
				<ellipse transform="matrix(0.7431 -0.6691 0.6691 0.7431 -337.0873 1588.9507)" style="fill:#FFFFFF;" cx="1901.135" cy="1233.547" rx="62.274" ry="40.25"/>
			
				<ellipse transform="matrix(0.7431 -0.6691 0.6691 0.7431 -340.7247 1587.0973)" style="fill:#375DA9;" cx="1896.903" cy="1237.358" rx="56.578" ry="36.569"/>
		</g>
		<g>
			
				<ellipse transform="matrix(0.4067 -0.9135 0.9135 0.4067 149.8058 2202.8374)" style="fill:#091D2F;" cx="1770.939" cy="986.078" rx="188.715" ry="121.974"/>
			
				<ellipse transform="matrix(0.4067 -0.9135 0.9135 0.4067 131.2358 2205.7786)" style="fill:#6CC29D;" cx="1763.919" cy="1001.847" rx="171.455" ry="110.818"/>
			
				<ellipse transform="matrix(0.4067 -0.9135 0.9135 0.4067 94.2592 2211.6353)" style="fill:#FFFFFF;" cx="1749.939" cy="1033.244" rx="137.086" ry="88.604"/>
			
				<ellipse transform="matrix(0.4067 -0.9135 0.9135 0.4067 80.7696 2213.7717)" style="fill:#7F569C;" cx="1744.84" cy="1044.699" rx="124.547" ry="80.5"/>
			
				<ellipse transform="matrix(0.4067 -0.9135 0.9135 0.4067 39.0046 2220.3867)" style="fill:#091D2F;" cx="1729.05" cy="1080.162" rx="85.727" ry="55.409"/>
			
				<ellipse transform="matrix(0.4067 -0.9135 0.9135 0.4067 30.5688 2221.7227)" style="fill:#6CC29D;" cx="1725.861" cy="1087.325" rx="77.886" ry="50.341"/>
			
				<ellipse transform="matrix(0.4067 -0.9135 0.9135 0.4067 13.7715 2224.3833)" style="fill:#FFFFFF;" cx="1719.511" cy="1101.589" rx="62.274" ry="40.25"/>
			
				<ellipse transform="matrix(0.4067 -0.9135 0.9135 0.4067 7.6436 2225.3538)" style="fill:#375DA9;" cx="1717.194" cy="1106.792" rx="56.578" ry="36.569"/>
		</g>
		<g>
			<ellipse style="fill:#091D2F;" cx="1499.916" cy="928.471" rx="117.906" ry="188.715"/>
			<ellipse style="fill:#6CC29D;" cx="1499.916" cy="945.731" rx="107.122" ry="171.455"/>
			<ellipse style="fill:#FFFFFF;" cx="1499.916" cy="980.101" rx="85.649" ry="137.086"/>
			<ellipse style="fill:#7F569C;" cx="1499.916" cy="992.639" rx="77.815" ry="124.547"/>
			<ellipse style="fill:#091D2F;" cx="1499.916" cy="1031.459" rx="53.561" ry="85.727"/>
			<ellipse style="fill:#6CC29D;" cx="1499.916" cy="1039.3" rx="48.662" ry="77.886"/>
			<ellipse style="fill:#FFFFFF;" cx="1499.916" cy="1054.912" rx="38.907" ry="62.274"/>
			<ellipse style="fill:#375DA9;" cx="1499.916" cy="1060.608" rx="35.349" ry="56.578"/>
		</g>
		<g>
			
				<ellipse transform="matrix(0.9135 -0.4067 0.4067 0.9135 -294.5242 584.3981)" style="fill:#091D2F;" cx="1227.426" cy="985.013" rx="121.974" ry="188.715"/>
			
				<ellipse transform="matrix(0.9135 -0.4067 0.4067 0.9135 -300.3308 588.6168)" style="fill:#6CC29D;" cx="1234.447" cy="1000.781" rx="110.818" ry="171.455"/>
			
				<ellipse transform="matrix(0.9135 -0.4067 0.4067 0.9135 -311.8928 597.0171)" style="fill:#FFFFFF;" cx="1248.426" cy="1032.179" rx="88.604" ry="137.086"/>
			
				<ellipse transform="matrix(0.9135 -0.4067 0.4067 0.9135 -316.1108 600.0817)" style="fill:#7F569C;" cx="1253.526" cy="1043.633" rx="80.5" ry="124.547"/>
			
				<ellipse transform="matrix(0.9135 -0.4067 0.4067 0.9135 -329.1702 609.5698)" style="fill:#091D2F;" cx="1269.315" cy="1079.097" rx="55.409" ry="85.727"/>
			
				<ellipse transform="matrix(0.9135 -0.4067 0.4067 0.9135 -331.8079 611.4863)" style="fill:#6CC29D;" cx="1272.504" cy="1086.26" rx="50.341" ry="77.886"/>
			
				<ellipse transform="matrix(0.9135 -0.4067 0.4067 0.9135 -337.0602 615.3022)" style="fill:#FFFFFF;" cx="1278.855" cy="1100.523" rx="40.25" ry="62.274"/>
			
				<ellipse transform="matrix(0.9135 -0.4067 0.4067 0.9135 -338.9763 616.6944)" style="fill:#375DA9;" cx="1281.171" cy="1105.726" rx="36.569" ry="56.578"/>
		</g>
		<g>
			
				<ellipse transform="matrix(0.6691 -0.7431 0.7431 0.6691 -521.3942 1123.9258)" style="fill:#091D2F;" cx="1001.492" cy="1147.498" rx="121.974" ry="188.715"/>
			
				<ellipse transform="matrix(0.6691 -0.7431 0.7431 0.6691 -525.7331 1137.2795)" style="fill:#6CC29D;" cx="1014.319" cy="1159.048" rx="110.818" ry="171.455"/>
			
				<ellipse transform="matrix(0.6691 -0.7431 0.7431 0.6691 -534.3727 1163.8695)" style="fill:#FFFFFF;" cx="1039.86" cy="1182.045" rx="88.604" ry="137.086"/>
			
				<ellipse transform="matrix(0.6691 -0.7431 0.7431 0.6691 -537.5245 1173.5698)" style="fill:#7F569C;" cx="1049.178" cy="1190.435" rx="80.5" ry="124.547"/>
			
				<ellipse transform="matrix(0.6691 -0.7431 0.7431 0.6691 -547.283 1203.6033)" style="fill:#091D2F;" cx="1078.027" cy="1216.41" rx="55.409" ry="85.727"/>
			
				<ellipse transform="matrix(0.6691 -0.7431 0.7431 0.6691 -549.254 1209.6694)" style="fill:#6CC29D;" cx="1083.854" cy="1221.657" rx="50.341" ry="77.886"/>
			
				<ellipse transform="matrix(0.6691 -0.7431 0.7431 0.6691 -553.1786 1221.7484)" style="fill:#FFFFFF;" cx="1095.457" cy="1232.104" rx="40.25" ry="62.274"/>
			
				<ellipse transform="matrix(0.6691 -0.7431 0.7431 0.6691 -554.6105 1226.155)" style="fill:#375DA9;" cx="1099.689" cy="1235.915" rx="36.569" ry="56.578"/>
		</g>
		<g>
			
				<ellipse transform="matrix(0.866 -0.5 0.5 0.866 -840.6915 717.7407)" style="fill:#091D2F;" cx="918.977" cy="1927.622" rx="188.715" ry="121.974"/>
			
				<ellipse transform="matrix(0.866 -0.5 0.5 0.866 -834.3737 724.0585)" style="fill:#6CC29D;" cx="933.925" cy="1918.992" rx="171.455" ry="110.818"/>
			
				<ellipse transform="matrix(0.866 -0.5 0.5 0.866 -821.7937 736.6385)" style="fill:#FFFFFF;" cx="963.689" cy="1901.807" rx="137.086" ry="88.604"/>
			
				<ellipse transform="matrix(0.866 -0.5 0.5 0.866 -817.2043 741.2278)" style="fill:#7F569C;" cx="974.548" cy="1895.538" rx="124.547" ry="80.5"/>
			
				<ellipse transform="matrix(0.866 -0.5 0.5 0.866 -802.9953 755.4369)" style="fill:#091D2F;" cx="1008.167" cy="1876.128" rx="85.727" ry="55.409"/>
			
				<ellipse transform="matrix(0.866 -0.5 0.5 0.866 -800.1253 758.3069)" style="fill:#6CC29D;" cx="1014.957" cy="1872.208" rx="77.886" ry="50.341"/>
			
				<ellipse transform="matrix(0.866 -0.5 0.5 0.866 -794.4106 764.0215)" style="fill:#FFFFFF;" cx="1028.478" cy="1864.401" rx="62.274" ry="40.25"/>
			
				<ellipse transform="matrix(0.866 -0.5 0.5 0.866 -792.3259 766.1063)" style="fill:#375DA9;" cx="1033.411" cy="1861.553" rx="56.578" ry="36.569"/>
		</g>
		<g>
			
				<ellipse transform="matrix(0.1045 -0.9945 0.9945 0.1045 281.7037 3638.3713)" style="fill:#091D2F;" cx="2161.262" cy="1662.754" rx="121.974" ry="188.715"/>
			
				<ellipse transform="matrix(0.1045 -0.9945 0.9945 0.1045 268.1264 3619.6838)" style="fill:#6CC29D;" cx="2144.096" cy="1660.95" rx="110.818" ry="171.455"/>
			
				<ellipse transform="matrix(0.1045 -0.9945 0.9945 0.1045 241.0913 3582.4731)" style="fill:#FFFFFF;" cx="2109.916" cy="1657.357" rx="88.604" ry="137.086"/>
			
				<ellipse transform="matrix(0.1045 -0.9945 0.9945 0.1045 231.2286 3568.8982)" style="fill:#7F569C;" cx="2097.446" cy="1656.047" rx="80.5" ry="124.547"/>
			
				<ellipse transform="matrix(0.1045 -0.9945 0.9945 0.1045 200.6924 3526.8689)" style="fill:#091D2F;" cx="2058.839" cy="1651.989" rx="55.409" ry="85.727"/>
			
				<ellipse transform="matrix(0.1045 -0.9945 0.9945 0.1045 194.5247 3518.3796)" style="fill:#6CC29D;" cx="2051.041" cy="1651.169" rx="50.341" ry="77.886"/>
			
				<ellipse transform="matrix(0.1045 -0.9945 0.9945 0.1045 182.2435 3501.4761)" style="fill:#FFFFFF;" cx="2035.513" cy="1649.537" rx="40.25" ry="62.274"/>
			
				<ellipse transform="matrix(0.1045 -0.9945 0.9945 0.1045 177.7632 3495.3096)" style="fill:#375DA9;" cx="2029.849" cy="1648.942" rx="36.569" ry="56.578"/>
		</g>
		<g>
			
				<ellipse transform="matrix(0.5 -0.866 0.866 0.5 -631.7455 2762.0667)" style="fill:#091D2F;" cx="2076.147" cy="1928.141" rx="121.974" ry="188.715"/>
			
				<ellipse transform="matrix(0.5 -0.866 0.866 0.5 -631.7455 2744.8059)" style="fill:#6CC29D;" cx="2061.199" cy="1919.511" rx="110.818" ry="171.455"/>
			
				<ellipse transform="matrix(0.5 -0.866 0.866 0.5 -631.7455 2710.437)" style="fill:#FFFFFF;" cx="2031.434" cy="1902.326" rx="88.604" ry="137.086"/>
			
				<ellipse transform="matrix(0.5 -0.866 0.866 0.5 -631.7455 2697.8987)" style="fill:#7F569C;" cx="2020.576" cy="1896.057" rx="80.5" ry="124.547"/>
			
				<ellipse transform="matrix(0.5 -0.866 0.866 0.5 -631.7455 2659.0786)" style="fill:#091D2F;" cx="1986.957" cy="1876.647" rx="55.409" ry="85.727"/>
			
				<ellipse transform="matrix(0.5 -0.866 0.866 0.5 -631.7455 2651.2378)" style="fill:#6CC29D;" cx="1980.167" cy="1872.727" rx="50.341" ry="77.886"/>
			
				<ellipse transform="matrix(0.5 -0.866 0.866 0.5 -631.7455 2635.625)" style="fill:#FFFFFF;" cx="1966.646" cy="1864.92" rx="40.25" ry="62.274"/>
			
				<ellipse transform="matrix(0.5 -0.866 0.866 0.5 -631.7455 2629.9292)" style="fill:#375DA9;" cx="1961.713" cy="1862.072" rx="36.569" ry="56.578"/>
		</g>
	</g>
</g>
<g id="Layer_1">
</g>
</svg>
